<svg width="77" height="48" viewBox="0 0 77 48" fill="none" xmlns="http://www.w3.org/2000/svg">
<g clip-path="url(#clip0_1714_71610)">
<path d="M0 8C0 3.58172 3.58172 0 8 0H69C73.4183 0 77 3.58172 77 8V40C77 44.4183 73.4183 48 69 48H8C3.58172 48 0 44.4183 0 40V8Z" fill="white"/>
<path d="M71.8504 38.4708H77.0005L70.1885 31.716L77.0005 25.038H71.9326L67.7258 29.3367L63.5591 25.038H58.4082L65.1803 31.7544L58.4082 38.4708H63.4158L67.6437 34.1338L71.8504 38.4708ZM50.0966 35.3619V33.2701H58.2028V30.238H50.0966V28.1465H58.4082V25.038L46.177 25.0376V38.4704L58.4082 38.4708V35.3616L50.0966 35.3619ZM73.1216 23.0883H77.0005V9.65552H70.9669L67.7444 18.0219L64.5431 9.65552H58.4068V23.0883H62.2854V13.6851L65.9798 23.0883H69.4275L73.1216 13.6659V23.0883ZM53.9941 23.0883H58.4068L52.0654 9.65552H47.0166L40.6748 23.0883H44.9846L46.1752 20.4018H52.7831L53.9941 23.0883ZM51.429 17.3888H47.5294L49.4792 12.9943L51.429 17.3888Z" fill="#0690FF"/>
</g>
<path d="M8 0.5H69C73.1421 0.5 76.5 3.85786 76.5 8V40C76.5 44.1421 73.1421 47.5 69 47.5H8C3.85786 47.5 0.5 44.1421 0.5 40V8C0.500001 3.85786 3.85786 0.5 8 0.5Z" stroke="#E3E3E5"/>
<defs>
<clipPath id="clip0_1714_71610">
<path d="M0 8C0 3.58172 3.58172 0 8 0H69C73.4183 0 77 3.58172 77 8V40C77 44.4183 73.4183 48 69 48H8C3.58172 48 0 44.4183 0 40V8Z" fill="white"/>
</clipPath>
</defs>
</svg>
