<svg width="76" height="48" viewBox="0 0 76 48" fill="none" xmlns="http://www.w3.org/2000/svg">
<path d="M8 0.5H68C72.1421 0.5 75.5 3.85786 75.5 8V40C75.5 44.1421 72.1421 47.5 68 47.5H8C3.85786 47.5 0.5 44.1421 0.5 40V8C0.500001 3.85786 3.85787 0.5 8 0.5Z" fill="white"/>
<path d="M8 0.5H68C72.1421 0.5 75.5 3.85786 75.5 8V40C75.5 44.1421 72.1421 47.5 68 47.5H8C3.85786 47.5 0.5 44.1421 0.5 40V8C0.500001 3.85786 3.85787 0.5 8 0.5Z" stroke="#E3E3E5"/>
<path d="M35.7158 15.6802C38.5667 15.6802 40.5519 17.542 40.5519 20.2525C40.5519 22.9728 38.5259 24.8441 35.6443 24.8441H32.4878V29.5997H30.2072V15.6802H35.7158ZM32.4878 23.0306H35.1046C37.0902 23.0306 38.2203 22.0179 38.2203 20.2622C38.2203 18.5067 37.0902 17.5034 35.1148 17.5034H32.4878V23.0306Z" fill="black"/>
<path d="M41.1478 26.7156C41.1478 24.9406 42.5835 23.8506 45.1292 23.7155L48.0614 23.5516V22.7703C48.0614 21.6417 47.2569 20.9664 45.9132 20.9664C44.6401 20.9664 43.8459 21.5451 43.6526 22.452H41.5755C41.6977 20.619 43.347 19.2686 45.9945 19.2686C48.5909 19.2686 50.2505 20.5709 50.2505 22.6062V29.5997H48.1427V27.9309H48.092C47.471 29.0596 46.1167 29.7733 44.7116 29.7733C42.6141 29.7733 41.1478 28.5386 41.1478 26.7156ZM48.0614 25.7992V24.9986L45.4242 25.1528C44.1107 25.2397 43.3675 25.7896 43.3675 26.6577C43.3675 27.545 44.1413 28.1239 45.3224 28.1239C46.8599 28.1239 48.0614 27.1206 48.0614 25.7992Z" fill="black"/>
<path d="M52.2403 33.3329V31.6447C52.4029 31.6832 52.7694 31.6832 52.9529 31.6832C53.971 31.6832 54.5209 31.2782 54.8568 30.2364C54.8568 30.2171 55.0504 29.619 55.0504 29.6094L51.1813 19.4519H53.5637L56.2724 27.7091H56.3128L59.0214 19.4519H61.3428L57.331 30.1302C56.415 32.5901 55.356 33.381 53.1363 33.381C52.9529 33.381 52.4029 33.3617 52.2403 33.3329Z" fill="black"/>
<path d="M23.4806 17.0385C24.0303 16.3872 24.4033 15.5127 24.3049 14.619C23.5003 14.6569 22.5184 15.1219 21.95 15.7737C21.4396 16.3319 20.9878 17.243 21.1056 18.0992C22.0088 18.1734 22.9112 17.6715 23.4806 17.0385Z" fill="black"/>
<path d="M24.2946 18.2664C22.983 18.1924 21.8677 18.9717 21.2413 18.9717C20.6146 18.9717 19.6554 18.3037 18.6179 18.3217C17.2676 18.3405 16.0146 19.0638 15.3294 20.2142C13.92 22.5155 14.9574 25.9293 16.328 27.8036C16.9936 28.7309 17.7958 29.7519 18.8527 29.7152C19.8514 29.6781 20.2427 29.1026 21.4566 29.1026C22.6696 29.1026 23.0222 29.7152 24.0793 29.6967C25.1756 29.6781 25.861 28.7689 26.5265 27.8407C27.2901 26.7837 27.6026 25.763 27.6223 25.7069C27.6026 25.6884 25.5084 24.9273 25.489 22.645C25.4692 20.7341 27.1332 19.8251 27.2115 19.7688C26.2719 18.4522 24.8037 18.3037 24.2946 18.2664Z" fill="black"/>
</svg>
