<svg width="76" height="48" viewBox="0 0 76 48" fill="none" xmlns="http://www.w3.org/2000/svg">
<path d="M8 0.5H68C72.1421 0.5 75.5 3.85786 75.5 8V40C75.5 44.1421 72.1421 47.5 68 47.5H8C3.85786 47.5 0.5 44.1421 0.5 40V8C0.500001 3.85786 3.85787 0.5 8 0.5Z" fill="white"/>
<path d="M8 0.5H68C72.1421 0.5 75.5 3.85786 75.5 8V40C75.5 44.1421 72.1421 47.5 68 47.5H8C3.85786 47.5 0.5 44.1421 0.5 40V8C0.500001 3.85786 3.85787 0.5 8 0.5Z" stroke="#E3E3E5"/>
<path fill-rule="evenodd" clip-rule="evenodd" d="M63.4131 22.2262C63.4131 20.7381 62.3161 19.8796 60.4038 19.8796H57.944V27.8276H59.601V24.6347H59.8174L62.1132 27.8276H64.1526L61.4754 24.479C62.725 24.2417 63.4131 23.443 63.4131 22.2262ZM60.0852 23.5388H59.601V21.1315H60.1116C61.1443 21.1315 61.7063 21.5362 61.7063 22.3094C61.7063 23.1087 61.1443 23.5388 60.0852 23.5388Z" fill="black"/>
<path fill-rule="evenodd" clip-rule="evenodd" d="M52.1417 27.8276H56.8458V26.482H53.7991V24.3366H56.7334V22.9904H53.7991V21.2264H56.8458V19.8796H52.1417V27.8276Z" fill="black"/>
<path fill-rule="evenodd" clip-rule="evenodd" d="M47.2967 25.2181L45.0293 19.8796H43.2171L46.8259 28.0314H47.7182L51.3917 19.8796H49.5937L47.2967 25.2181Z" fill="black"/>
<path d="M39.2436 28.3C41.7837 28.3 43.8429 26.3753 43.8429 24.0011C43.8429 21.6269 41.7837 19.7023 39.2436 19.7023C36.7035 19.7023 34.6443 21.6269 34.6443 24.0011C34.6443 26.3753 36.7035 28.3 39.2436 28.3Z" fill="url(#paint0_radial_1714_71612)"/>
<path fill-rule="evenodd" clip-rule="evenodd" d="M27.5779 23.8591C27.5779 26.1953 29.5405 28.0066 32.0662 28.0066C32.7801 28.0066 33.3915 27.8755 34.1457 27.5435V25.7187C33.4825 26.339 32.8954 26.5892 32.1434 26.5892C30.4729 26.5892 29.2872 25.4571 29.2872 23.8475C29.2872 22.3216 30.5103 21.118 32.0662 21.118C32.8573 21.118 33.4562 21.3818 34.1457 22.0121V20.1882C33.4177 19.843 32.8189 19.7 32.1053 19.7C29.5925 19.7 27.5779 21.5482 27.5779 23.8591Z" fill="black"/>
<path fill-rule="evenodd" clip-rule="evenodd" d="M24.6088 22.9296C23.6134 22.5854 23.3213 22.3582 23.3213 21.9289C23.3213 21.4281 23.842 21.0479 24.5569 21.0479C25.0539 21.0479 25.4623 21.2387 25.8943 21.6915L26.7622 20.6294C26.049 20.0463 25.1958 19.7482 24.2635 19.7482C22.7589 19.7482 21.6114 20.7246 21.6114 22.0256C21.6114 23.1206 22.1459 23.681 23.7034 24.2052C24.3529 24.4192 24.6833 24.5617 24.8502 24.6578C25.1814 24.8601 25.3473 25.1463 25.3473 25.4801C25.3473 26.124 24.7997 26.6012 24.0595 26.6012C23.2684 26.6012 22.6314 26.2315 22.2493 25.5412L21.1777 26.5057C21.9419 27.554 22.8597 28.0186 24.1219 28.0186C25.8453 28.0186 27.0546 26.9475 27.0546 25.4088C27.0546 24.1462 26.4955 23.5744 24.6088 22.9296Z" fill="black"/>
<path fill-rule="evenodd" clip-rule="evenodd" d="M18.8945 19.8796H20.5532V27.8276H18.8945V19.8796Z" fill="black"/>
<path fill-rule="evenodd" clip-rule="evenodd" d="M13.5665 19.8796H11.1318V27.8276H13.5537C14.8415 27.8276 15.7712 27.5435 16.5876 26.9101C17.5577 26.1596 18.1313 25.0287 18.1313 23.8591C18.1313 21.5134 16.2564 19.8796 13.5665 19.8796ZM15.5041 25.8501C14.9827 26.2901 14.306 26.482 13.2344 26.482H12.7892V21.2264H13.2344C14.306 21.2264 14.9562 21.4054 15.5041 21.869C16.0777 22.3465 16.4227 23.0862 16.4227 23.8474C16.4227 24.6105 16.0777 25.3729 15.5041 25.8501Z" fill="black"/>
<path fill-rule="evenodd" clip-rule="evenodd" d="M64.4713 20.1783C64.4713 20.0392 64.3691 19.9628 64.1886 19.9628H63.9487V20.6613H64.1272V20.3905L64.3362 20.6613H64.5541L64.3082 20.3733C64.4135 20.3469 64.4713 20.2754 64.4713 20.1783ZM64.1571 20.2738H64.1272V20.0911H64.1591C64.2474 20.0911 64.2933 20.1209 64.2933 20.1808C64.2933 20.2428 64.2469 20.2738 64.1571 20.2738Z" fill="black"/>
<path fill-rule="evenodd" clip-rule="evenodd" d="M64.2244 19.7018C63.8614 19.7018 63.5737 19.9726 63.5737 20.3107C63.5737 20.6488 63.8649 20.9199 64.2244 20.9199C64.578 20.9199 64.8677 20.646 64.8677 20.3107C64.8677 19.9773 64.578 19.7018 64.2244 19.7018ZM64.222 20.8112C63.9367 20.8112 63.7029 20.5889 63.7029 20.3116C63.7029 20.0334 63.9337 19.8114 64.222 19.8114C64.5062 19.8114 64.7381 20.0387 64.7381 20.3116C64.7381 20.5865 64.5062 20.8112 64.222 20.8112Z" fill="black"/>
<defs>
<radialGradient id="paint0_radial_1714_71612" cx="0" cy="0" r="1" gradientTransform="matrix(-37.8684 -4.72534 28.7399 -6.0606 58.0473 27.0149)" gradientUnits="userSpaceOnUse">
<stop stop-color="#F59900"/>
<stop offset="0.210082" stop-color="#F39501"/>
<stop offset="0.908163" stop-color="#CE3C0B"/>
<stop offset="1" stop-color="#A4420A"/>
</radialGradient>
</defs>
</svg>
