<svg width="76" height="48" viewBox="0 0 76 48" fill="none" xmlns="http://www.w3.org/2000/svg">
<path d="M8 0.5H68C72.1421 0.5 75.5 3.85786 75.5 8V40C75.5 44.1421 72.1421 47.5 68 47.5H8C3.85786 47.5 0.5 44.1421 0.5 40V8C0.500001 3.85786 3.85787 0.5 8 0.5Z" fill="white"/>
<path d="M8 0.5H68C72.1421 0.5 75.5 3.85786 75.5 8V40C75.5 44.1421 72.1421 47.5 68 47.5H8C3.85786 47.5 0.5 44.1421 0.5 40V8C0.500001 3.85786 3.85787 0.5 8 0.5Z" stroke="#E3E3E5"/>
<path d="M36.7111 22.2004H39.6592C40.3617 22.2004 40.9424 21.9763 41.4014 21.5293C41.8732 21.0834 42.1097 20.551 42.1097 19.9354C42.1097 19.332 41.8732 18.8063 41.4014 18.3581C40.9424 17.9 40.3617 17.6704 39.6592 17.6704H36.7111V22.2004ZM36.7111 29.0474H34.9502V16.0776H39.6217C40.8078 16.0776 41.8147 16.4514 42.6448 17.2001C43.4878 17.9488 43.9092 18.8606 43.9092 19.9354C43.9092 21.0346 43.4878 21.953 42.6448 22.6884C41.8287 23.426 40.8195 23.7932 39.6206 23.7932H36.7111V29.0474ZM45.6889 26.331C45.6889 26.7658 45.8832 27.1274 46.2731 27.418C46.6618 27.7064 47.1185 27.8517 47.6406 27.8517C48.3818 27.8517 49.0409 27.5922 49.6217 27.0742C50.2036 26.554 50.4927 25.9439 50.4927 25.244C49.9436 24.8336 49.1779 24.6284 48.1956 24.6284C47.4814 24.6284 46.8843 24.7926 46.4066 25.1187C45.9277 25.4448 45.6889 25.8474 45.6889 26.331ZM47.9673 19.8811C49.2692 19.8811 50.296 20.2105 51.0501 20.8682C51.8017 21.5271 52.1787 22.43 52.1787 23.5769V29.0474H50.4939V27.8162H50.4178C49.6896 28.83 48.7201 29.338 47.5072 29.338C46.4745 29.338 45.6093 29.0474 44.9138 28.4684C44.2183 27.8883 43.8706 27.164 43.8706 26.2944C43.8706 25.376 44.2371 24.6462 44.9712 24.1027C45.7053 23.5591 46.6841 23.2874 47.9099 23.2874C48.9543 23.2874 49.8172 23.4682 50.4927 23.8309V23.4493C50.4927 22.8703 50.2504 22.3779 49.7657 21.9741C49.2986 21.576 48.6903 21.3593 48.0621 21.3674C47.0787 21.3674 46.3012 21.7589 45.7264 22.5453L44.1762 21.6203C45.0309 20.4612 46.2954 19.8811 47.9673 19.8811ZM61.8449 20.1717L55.9675 32.9607H54.1492L56.3316 28.4862L52.4656 20.1717H54.3798L57.1746 26.5484H57.2121L59.9306 20.1706L61.8449 20.1717Z" fill="#44444C"/>
<path d="M29.5949 22.6618C29.5949 22.1372 29.5481 21.6303 29.4591 21.1466H22.0315V24.0172H26.2862C26.11 24.9441 25.5415 25.7624 24.7126 26.2822V28.1457H27.2521C28.7391 26.8479 29.5949 24.929 29.5949 22.6618Z" fill="#4285F4"/>
<path d="M22.0315 29.9448C24.1577 29.9448 25.9467 29.2848 27.2522 28.1468L24.7126 26.2822C24.0066 26.7325 23.097 26.9954 22.0315 26.9954C19.9779 26.9954 18.2334 25.6844 17.6105 23.9185H14.9949V25.8385C16.3331 28.3571 19.0552 29.946 22.0315 29.9459" fill="#34A853"/>
<path d="M17.6105 23.9185C17.2819 22.9931 17.2818 21.9911 17.6104 21.0657V19.1457H14.9948C14.4419 20.183 14.1543 21.329 14.1553 22.491C14.1553 23.6945 14.4597 24.8314 14.9948 25.8374L17.6104 23.9174L17.6105 23.9185Z" fill="#FABB05"/>
<path d="M22.0313 17.9888C23.1928 17.9888 24.2325 18.3659 25.0521 19.1068V19.108L27.3 16.9805C25.9372 15.7782 24.1575 15.0394 22.0325 15.0394C19.0566 15.0391 16.3344 16.6276 14.9959 19.1457L17.6115 21.0657C18.2344 19.2998 19.9789 17.9888 22.0325 17.9888" fill="#E94235"/>
</svg>
