<svg width="77" height="48" viewBox="0 0 77 48" fill="none" xmlns="http://www.w3.org/2000/svg">
<path d="M8 0.5H69C73.1421 0.5 76.5 3.85786 76.5 8V40C76.5 44.1421 73.1421 47.5 69 47.5H8C3.85786 47.5 0.5 44.1421 0.5 40V8C0.500001 3.85786 3.85786 0.5 8 0.5Z" fill="white"/>
<path d="M8 0.5H69C73.1421 0.5 76.5 3.85786 76.5 8V40C76.5 44.1421 73.1421 47.5 69 47.5H8C3.85786 47.5 0.5 44.1421 0.5 40V8C0.500001 3.85786 3.85786 0.5 8 0.5Z" stroke="#E3E3E5"/>
<path fill-rule="evenodd" clip-rule="evenodd" d="M33.1054 33.0648H43.895V14.9349H33.1054V33.0648Z" fill="#FF5F00"/>
<path fill-rule="evenodd" clip-rule="evenodd" d="M58.4506 24.0001C58.4506 30.368 52.9304 35.53 46.1207 35.53C43.2442 35.53 40.5975 34.6089 38.5002 33.0651C41.3681 30.9538 43.2099 27.678 43.2099 24.0001C43.2099 20.322 41.3681 17.0462 38.5002 14.9349C40.5975 13.3911 43.2442 12.47 46.1207 12.47C52.9304 12.47 58.4506 17.632 58.4506 24.0001Z" fill="#F79E1B"/>
<path fill-rule="evenodd" clip-rule="evenodd" d="M33.7904 24.0001C33.7904 20.322 35.6323 17.0462 38.5002 14.9349C36.4029 13.3911 33.7562 12.47 30.8797 12.47C24.07 12.47 18.5498 17.632 18.5498 24.0001C18.5498 30.368 24.07 35.53 30.8797 35.53C33.7562 35.53 36.4029 34.6089 38.5002 33.0651C35.6323 30.9538 33.7904 27.678 33.7904 24.0001Z" fill="#EB001B"/>
</svg>
