<svg width="77" height="48" viewBox="0 0 77 48" fill="none" xmlns="http://www.w3.org/2000/svg">
<path d="M8 0.5H69C73.1421 0.5 76.5 3.85786 76.5 8V40C76.5 44.1421 73.1421 47.5 69 47.5H8C3.85786 47.5 0.5 44.1421 0.5 40V8C0.500001 3.85786 3.85786 0.5 8 0.5Z" fill="white"/>
<path d="M8 0.5H69C73.1421 0.5 76.5 3.85786 76.5 8V40C76.5 44.1421 73.1421 47.5 69 47.5H8C3.85786 47.5 0.5 44.1421 0.5 40V8C0.500001 3.85786 3.85786 0.5 8 0.5Z" stroke="#E3E3E5"/>
<path fill-rule="evenodd" clip-rule="evenodd" d="M48.9156 20.802C48.6746 22.2806 47.4662 22.2806 46.297 22.2806H45.6319L46.0986 19.52C46.1265 19.3532 46.2805 19.2305 46.4612 19.2305H46.7665C47.5623 19.2305 48.3137 19.2305 48.7013 19.6538C48.9332 19.9071 49.0031 20.2832 48.9156 20.802ZM48.4069 16.9441H43.9984C43.6965 16.9441 43.4402 17.1491 43.393 17.4274L41.6105 27.99C41.5753 28.1982 41.7481 28.3868 41.9732 28.3868H44.2354C44.4463 28.3868 44.6259 28.2434 44.6588 28.049L45.1647 25.0541C45.2113 24.7758 45.4682 24.5708 45.7695 24.5708H47.1644C50.0683 24.5708 51.7445 23.2579 52.1822 20.6549C52.3794 19.5173 52.1902 18.623 51.62 17.9967C50.9931 17.3085 49.8819 16.9441 48.4069 16.9441Z" fill="#009CDE"/>
<path fill-rule="evenodd" clip-rule="evenodd" d="M17.4717 20.802C17.2307 22.2806 16.0224 22.2806 14.8531 22.2806H14.1881L14.6548 19.52C14.6826 19.3532 14.8366 19.2305 15.0174 19.2305H15.3226C16.1184 19.2305 16.8698 19.2305 17.2574 19.6538C17.4894 19.9071 17.5593 20.2832 17.4717 20.802ZM16.963 16.9441H12.5545C12.2527 16.9441 11.9963 17.1491 11.9492 17.4274L10.1667 27.99C10.1315 28.1982 10.3037 28.3868 10.5293 28.3868H12.6347C12.9359 28.3868 13.1923 28.1817 13.2394 27.9039L13.7209 25.0541C13.7675 24.7758 14.0244 24.5708 14.3257 24.5708H15.7205C18.6244 24.5708 20.3007 23.2579 20.7383 20.6549C20.9356 19.5173 20.7463 18.623 20.1762 17.9967C19.5493 17.3085 18.438 16.9441 16.963 16.9441Z" fill="#003087"/>
<path fill-rule="evenodd" clip-rule="evenodd" d="M27.1979 24.594C26.9939 25.721 26.0367 26.4778 24.8152 26.4778C24.203 26.4778 23.7125 26.2935 23.3976 25.9451C23.0856 25.5999 22.9679 25.1076 23.0668 24.56C23.2566 23.4426 24.2298 22.6618 25.4325 22.6618C26.0322 22.6618 26.5187 22.8477 26.8398 23.1993C27.1632 23.5536 27.2906 24.0486 27.1979 24.594ZM30.14 20.7546H28.0289C27.8482 20.7546 27.6941 20.8773 27.6657 21.0446L27.5731 21.5959L27.4259 21.3962C26.9683 20.7764 25.9491 20.5687 24.9317 20.5687C22.5996 20.5687 20.6073 22.2205 20.2197 24.5366C20.0179 25.6923 20.3044 26.7964 21.0058 27.5671C21.6498 28.2751 22.5689 28.5698 23.6642 28.5698C25.5444 28.5698 26.5869 27.4417 26.5869 27.4417L26.4926 27.9898C26.4573 28.198 26.6295 28.3866 26.8557 28.3866H28.7565C29.0583 28.3866 29.3147 28.1821 29.3618 27.9038L30.5032 21.1514C30.5384 20.9432 30.3656 20.7546 30.14 20.7546Z" fill="#003087"/>
<path fill-rule="evenodd" clip-rule="evenodd" d="M58.6415 24.594C58.4374 25.721 57.4802 26.4778 56.2588 26.4778C55.6466 26.4778 55.1561 26.2935 54.8411 25.9451C54.5285 25.5999 54.4115 25.1076 54.5104 24.56C54.7002 23.4426 55.6733 22.6618 56.8761 22.6618C57.4757 22.6618 57.9623 22.8477 58.2834 23.1993C58.6068 23.5536 58.7341 24.0486 58.6415 24.594ZM61.5835 20.7546H59.4725C59.2917 20.7546 59.1377 20.8773 59.1092 21.0446L59.0166 21.5959L58.8688 21.3962C58.4118 20.7764 57.3927 20.5687 56.3753 20.5687C54.0432 20.5687 52.0509 22.2205 51.6632 24.5366C51.4615 25.6923 51.7479 26.7964 52.4493 27.5671C53.0934 28.2751 54.0124 28.5698 55.1077 28.5698C56.988 28.5698 58.0305 27.4417 58.0305 27.4417L57.9361 27.9898C57.9009 28.198 58.0731 28.3866 58.2993 28.3866H60.2C60.5018 28.3866 60.7582 28.1821 60.8054 27.9038L61.9467 21.1514C61.982 20.9432 61.8092 20.7546 61.5835 20.7546Z" fill="#009CDE"/>
<path fill-rule="evenodd" clip-rule="evenodd" d="M41.3832 20.7547H39.2614C39.0584 20.7547 38.8686 20.8487 38.7549 21.0059L35.8277 25.0338L34.5874 21.1631C34.5095 20.921 34.2708 20.7547 34.0003 20.7547H31.9148C31.663 20.7547 31.4857 20.9862 31.567 21.2088L33.9031 27.6171L31.7057 30.5142C31.5334 30.7416 31.7074 31.056 32.0058 31.056H34.1253C34.326 31.056 34.5141 30.9641 34.6289 30.8101L41.685 21.2938C41.8539 21.0659 41.6799 20.7547 41.3832 20.7547Z" fill="#003087"/>
<path fill-rule="evenodd" clip-rule="evenodd" d="M64.0718 17.2344L62.2626 27.9903C62.2274 28.1984 62.3996 28.387 62.6252 28.387H64.4455C64.7465 28.387 65.0031 28.182 65.05 27.9037L66.8345 17.3411C66.8697 17.1329 66.6971 16.9444 66.4713 16.9444H64.4353C64.2537 16.9444 64.0997 17.067 64.0718 17.2344Z" fill="#009CDE"/>
</svg>
