<svg width="76" height="48" viewBox="0 0 76 48" fill="none" xmlns="http://www.w3.org/2000/svg">
<path d="M8 0.5H68C72.1421 0.5 75.5 3.85786 75.5 8V40C75.5 44.1421 72.1421 47.5 68 47.5H8C3.85786 47.5 0.5 44.1421 0.5 40V8C0.500001 3.85786 3.85787 0.5 8 0.5Z" fill="white"/>
<path d="M8 0.5H68C72.1421 0.5 75.5 3.85786 75.5 8V40C75.5 44.1421 72.1421 47.5 68 47.5H8C3.85786 47.5 0.5 44.1421 0.5 40V8C0.500001 3.85786 3.85787 0.5 8 0.5Z" stroke="#E3E3E5"/>
<path d="M18.8766 18.8712C19.2537 19.4666 19.4332 20.096 19.4332 20.8785C19.4332 23.3791 17.1887 26.6111 15.3572 28.8905H11.1914L9.52148 19.4156L13.1666 19.0924L14.0464 25.8286C14.8724 24.5528 15.8959 22.5455 15.8959 21.1847C15.8959 20.4362 15.7522 19.9259 15.5547 19.5006L18.8766 18.8712Z" fill="#4783C4"/>
<path d="M23.617 23.0389C24.2813 23.0389 25.9871 22.7497 25.9871 21.8311C25.9871 21.3888 25.6639 21.1677 25.2689 21.1677C24.6045 21.1677 23.7067 21.9332 23.617 23.0219V23.0389ZM23.5272 24.842C23.5272 25.9477 24.1736 26.39 25.0534 26.39C25.9872 26.39 26.9029 26.1688 28.07 25.6075L27.6211 28.4483C26.7952 28.8225 25.5023 29.0777 24.2634 29.0777C21.0852 29.0777 19.9539 27.2575 19.9539 24.9781C19.9539 22.0182 21.8034 18.8882 25.6101 18.8882C27.7109 18.8882 28.8781 19.9939 28.8781 21.5419C28.8781 24.0425 25.5023 24.808 23.5272 24.825V24.842Z" fill="#4783C4"/>
<path d="M39.4183 21.0656C39.4183 21.4228 39.3644 21.9502 39.3105 22.3074L38.2152 28.8736H34.6599L35.6655 22.8688C35.6834 22.6987 35.7373 22.3754 35.7373 22.1883C35.7373 21.7461 35.45 21.644 35.1088 21.644C34.642 21.644 34.1931 21.8481 33.8699 21.9842L32.7386 28.8736H29.1654L30.7994 19.0584H33.8878L33.9237 19.8409C34.6599 19.3816 35.6116 18.8882 36.9762 18.8882C38.7898 18.8882 39.4183 19.7558 39.4183 21.0826V21.0656Z" fill="#4783C4"/>
<path d="M49.9764 19.9769C50.9999 19.2795 51.9516 18.9053 53.2803 18.9053C55.1118 18.9053 55.7403 19.7728 55.7403 21.0996C55.7403 21.4569 55.6864 21.9842 55.6326 22.3414L54.5372 28.9076H50.982L52.0054 22.7667C52.0234 22.5966 52.0593 22.4095 52.0593 22.2734C52.0593 21.7801 51.772 21.678 51.4309 21.678C50.982 21.678 50.551 21.8651 50.2278 22.0182L49.0966 28.9076H45.5413L46.5648 22.7667C46.5827 22.5966 46.6186 22.4095 46.6186 22.2734C46.6186 21.7801 46.3313 21.678 45.9902 21.678C45.5233 21.678 45.0744 21.8821 44.7512 22.0182L43.62 28.9076H40.0467L41.6807 19.0924H44.7333L44.823 19.9089C45.5413 19.4156 46.4929 18.9223 47.7858 18.9223C48.8991 18.9223 49.6352 19.3816 49.9944 19.9939H49.9764V19.9769Z" fill="#4783C4"/>
<path d="M62.815 22.8347C62.815 22.0352 62.5995 21.4909 61.971 21.4909C60.5705 21.4909 60.2832 23.8384 60.2832 25.0461C60.2832 25.9647 60.5525 26.5261 61.181 26.5261C62.5097 26.5261 62.815 24.0425 62.815 22.8518V22.8347ZM56.674 24.893C56.674 21.7971 58.3978 18.9053 62.384 18.9053C65.3827 18.9053 66.478 20.5893 66.478 22.9028C66.478 25.9647 64.7722 29.1287 60.6962 29.1287C57.6796 29.1287 56.674 27.2575 56.674 24.9101V24.893Z" fill="#4783C4"/>
</svg>
