<svg width="76" height="48" viewBox="0 0 76 48" fill="none" xmlns="http://www.w3.org/2000/svg">
<path d="M8 0.5H68C72.1421 0.5 75.5 3.85786 75.5 8V40C75.5 44.1421 72.1421 47.5 68 47.5H8C3.85786 47.5 0.5 44.1421 0.5 40V8C0.500001 3.85786 3.85787 0.5 8 0.5Z" fill="white"/>
<path d="M8 0.5H68C72.1421 0.5 75.5 3.85786 75.5 8V40C75.5 44.1421 72.1421 47.5 68 47.5H8C3.85786 47.5 0.5 44.1421 0.5 40V8C0.500001 3.85786 3.85787 0.5 8 0.5Z" stroke="#E3E3E5"/>
<path d="M18.8303 16.2976C20.6555 16.2976 20.8408 17.6611 20.8439 17.6847L22.2723 24.6115L22.751 26.8924L26.7975 16.2976H31.3657L24.6129 31.7024H20.191L16.5026 18.3196C14.1095 16.9603 12.0635 16.5576 12.0635 16.5576L12.142 16.2976H18.8303Z" fill="#1434CB"/>
<path d="M34.6131 31.7024H30.1589L32.9426 16.2976H37.3968L34.6131 31.7024Z" fill="#1434CB"/>
<path d="M45.8309 16.2976C47.6666 16.2976 49.4285 16.9349 49.46 16.9464L48.8846 20.1424C47.1576 19.229 43.2289 19.0132 43.2289 20.6953C43.229 22.3776 48.8594 22.7379 48.8598 26.6069C48.8598 30.3322 44.7053 31.7024 41.9521 31.7024C39.1985 31.7024 37.3968 30.8619 37.3968 30.8619L37.997 27.521C39.6486 28.7944 44.6545 29.1547 44.6552 27.1364C44.6552 25.1178 39.0742 25.0695 39.0737 21.2248C39.0737 17.1391 43.8282 16.2977 45.8309 16.2976Z" fill="#1434CB"/>
<path fill-rule="evenodd" clip-rule="evenodd" d="M63.937 31.7024H58.9934L58.5169 29.4152H53.3442L52.4955 31.7024H48.2543L54.323 17.446C54.323 17.446 54.6901 16.2977 56.201 16.2976H60.6789L63.937 31.7024ZM54.8888 26.9627H58.5083L57.2057 21.0373L54.8888 26.9627Z" fill="#1434CB"/>
</svg>
